<svg width="16" height="16" viewBox="0 0 16 16" fill="none" xmlns="http://www.w3.org/2000/svg">
<g id="Swap me">
<path id="Vector" d="M12.6666 3.33301H3.33331C2.80288 3.33301 2.29417 3.54372 1.9191 3.91879C1.54403 4.29387 1.33331 4.80257 1.33331 5.33301V10.6663C1.33331 11.1968 1.54403 11.7055 1.9191 12.0806C2.29417 12.4556 2.80288 12.6663 3.33331 12.6663H12.6666C13.1971 12.6663 13.7058 12.4556 14.0809 12.0806C14.4559 11.7055 14.6666 11.1968 14.6666 10.6663V5.33301C14.6666 4.80257 14.4559 4.29387 14.0809 3.91879C13.7058 3.54372 13.1971 3.33301 12.6666 3.33301ZM7.33331 7.33301C7.33333 7.63067 7.26691 7.92459 7.13889 8.19332C7.01087 8.46205 6.82448 8.69881 6.59331 8.88634L7.63331 9.40634C7.79033 9.48626 7.90932 9.62509 7.96429 9.79249C8.01925 9.95988 8.00572 10.1422 7.92665 10.2997C7.87125 10.4096 7.78648 10.5021 7.68176 10.5668C7.57703 10.6315 7.45642 10.666 7.33331 10.6663C7.22873 10.6676 7.12553 10.6424 7.03331 10.593L4.36665 9.25968C4.23378 9.19161 4.12761 9.08093 4.06513 8.94535C4.00265 8.80977 3.98748 8.65714 4.02206 8.51192C4.05664 8.36669 4.13896 8.23728 4.25583 8.1444C4.3727 8.05152 4.51737 8.00056 4.66665 7.99967H5.33331C5.51012 7.99967 5.67969 7.92944 5.80472 7.80441C5.92974 7.67939 5.99998 7.50982 5.99998 7.33301C5.99998 7.1562 5.92974 6.98663 5.80472 6.8616C5.67969 6.73658 5.51012 6.66634 5.33331 6.66634H3.99998C3.82317 6.66634 3.6536 6.5961 3.52858 6.47108C3.40355 6.34605 3.33331 6.17649 3.33331 5.99967C3.33331 5.82286 3.40355 5.65329 3.52858 5.52827C3.6536 5.40325 3.82317 5.33301 3.99998 5.33301H7.33331C7.51012 5.33301 7.67969 5.40325 7.80472 5.52827C7.92974 5.65329 7.99998 5.82286 7.99998 5.99967C7.99998 6.17649 7.92974 6.34605 7.80472 6.47108C7.67969 6.5961 7.51012 6.66634 7.33331 6.66634H7.21331C7.29093 6.88012 7.33151 7.10558 7.33331 7.33301ZM11.3333 11.333C11.2015 11.333 11.0726 11.2939 10.9629 11.2207C10.8533 11.1474 10.7679 11.0433 10.7174 10.9215C10.6669 10.7996 10.6537 10.6656 10.6795 10.5363C10.7052 10.407 10.7687 10.2882 10.8619 10.1949C10.9551 10.1017 11.0739 10.0382 11.2033 10.0125C11.3326 9.98676 11.4666 9.99996 11.5884 10.0504C11.7103 10.1009 11.8144 10.1863 11.8876 10.296C11.9609 10.4056 12 10.5345 12 10.6663C12 10.8432 11.9297 11.0127 11.8047 11.1377C11.6797 11.2628 11.5101 11.333 11.3333 11.333ZM11.3333 8.66634C11.2015 8.66634 11.0726 8.62724 10.9629 8.55399C10.8533 8.48073 10.7679 8.37661 10.7174 8.2548C10.6669 8.13298 10.6537 7.99894 10.6795 7.86961C10.7052 7.74029 10.7687 7.62151 10.8619 7.52827C10.9551 7.43504 11.0739 7.37154 11.2033 7.34582C11.3326 7.32009 11.4666 7.3333 11.5884 7.38375C11.7103 7.43421 11.8144 7.51966 11.8876 7.62929C11.9609 7.73893 12 7.86782 12 7.99967C12 8.17649 11.9297 8.34605 11.8047 8.47108C11.6797 8.5961 11.5101 8.66634 11.3333 8.66634ZM11.3333 5.99967C11.2015 5.99967 11.0726 5.96058 10.9629 5.88732C10.8533 5.81407 10.7679 5.70995 10.7174 5.58813C10.6669 5.46631 10.6537 5.33227 10.6795 5.20295C10.7052 5.07363 10.7687 4.95484 10.8619 4.8616C10.9551 4.76837 11.0739 4.70487 11.2033 4.67915C11.3326 4.65343 11.4666 4.66663 11.5884 4.71709C11.7103 4.76755 11.8144 4.853 11.8876 4.96263C11.9609 5.07226 12 5.20115 12 5.33301C12 5.50982 11.9297 5.67939 11.8047 5.80441C11.6797 5.92944 11.5101 5.99967 11.3333 5.99967Z" fill="#FF6DCC"/>
</g>
</svg>
