<svg width="16" height="16" viewBox="0 0 16 16" fill="none" xmlns="http://www.w3.org/2000/svg">
<g id="Swap me">
<path id="Vector" d="M8.00002 7.33301C8.59336 7.33301 9.17338 7.15706 9.66673 6.82742C10.1601 6.49777 10.5446 6.02924 10.7717 5.48106C10.9987 4.93288 11.0581 4.32968 10.9424 3.74774C10.8266 3.1658 10.5409 2.63125 10.1213 2.21169C9.70178 1.79213 9.16723 1.50641 8.58529 1.39065C8.00335 1.2749 7.40015 1.33431 6.85197 1.56137C6.30379 1.78843 5.83526 2.17295 5.50561 2.6663C5.17597 3.15965 5.00002 3.73967 5.00002 4.33301C5.00178 5.12812 5.31842 5.89016 5.88065 6.45238C6.44287 7.01461 7.20491 7.33125 8.00002 7.33301ZM9.64669 8.25968L8.38002 9.19968C8.26462 9.28622 8.12427 9.33301 7.98002 9.33301C7.83577 9.33301 7.69542 9.28622 7.58002 9.19968L6.32669 8.27301C5.26223 8.62474 4.33568 9.30296 3.67865 10.2113C3.02162 11.1197 2.66753 12.2119 2.66669 13.333C2.66669 13.6866 2.80716 14.0258 3.05721 14.2758C3.30726 14.5259 3.6464 14.6663 4.00002 14.6663H12C12.3536 14.6663 12.6928 14.5259 12.9428 14.2758C13.1929 14.0258 13.3334 13.6866 13.3334 13.333C13.3335 12.2064 12.9768 11.1086 12.3145 10.1972C11.6522 9.28579 10.7183 8.60753 9.64669 8.25968ZM11.3334 12.333H10.6667V12.9997C10.6667 13.1765 10.5964 13.3461 10.4714 13.4711C10.3464 13.5961 10.1768 13.6663 10 13.6663C9.82321 13.6663 9.65364 13.5961 9.52862 13.4711C9.40359 13.3461 9.33335 13.1765 9.33335 12.9997V12.333H8.66669C8.48988 12.333 8.32031 12.2628 8.19528 12.1377C8.07026 12.0127 8.00002 11.8432 8.00002 11.6663C8.00002 11.4895 8.07026 11.32 8.19528 11.1949C8.32031 11.0699 8.48988 10.9997 8.66669 10.9997H9.33335V10.333C9.33335 10.1562 9.40359 9.98663 9.52862 9.8616C9.65364 9.73658 9.82321 9.66634 10 9.66634C10.1768 9.66634 10.3464 9.73658 10.4714 9.8616C10.5964 9.98663 10.6667 10.1562 10.6667 10.333V10.9997H11.3334C11.5102 10.9997 11.6797 11.0699 11.8048 11.1949C11.9298 11.32 12 11.4895 12 11.6663C12 11.8432 11.9298 12.0127 11.8048 12.1377C11.6797 12.2628 11.5102 12.333 11.3334 12.333Z" fill="#FF6DCC"/>
</g>
</svg>
