<svg width="24" height="24" viewBox="0 0 24 24" fill="none" xmlns="http://www.w3.org/2000/svg">
<g id="Swap me">
<path id="Vector" d="M2.9301 17.3C3.00472 18.0426 3.35344 18.7307 3.90817 19.23C4.46289 19.7292 5.18379 20.0038 5.9301 20H18.0801C18.8264 20.0038 19.5473 19.7292 20.102 19.23C20.6568 18.7307 21.0055 18.0426 21.0801 17.3L21.2101 16H2.8001L2.9301 17.3ZM21.7401 7.00003C21.5386 6.63704 21.2291 6.34576 20.8546 6.16657C20.4801 5.98738 20.0592 5.92918 19.6501 6.00003C19.2442 6.07198 18.8705 6.26757 18.5801 6.56003L17.7201 7.41003C17.6288 7.50357 17.5201 7.57831 17.4001 7.63003C17.2792 7.67785 17.1501 7.70163 17.0201 7.70003C16.8878 7.69948 16.7569 7.67268 16.635 7.62119C16.5132 7.56969 16.4027 7.49452 16.3101 7.40003L13.5301 4.60003C13.1567 4.23658 12.6562 4.0332 12.1351 4.0332C11.614 4.0332 11.1135 4.23658 10.7401 4.60003L7.7401 7.52003C7.64064 7.61101 7.52382 7.68093 7.39665 7.72561C7.26948 7.77029 7.1346 7.7888 7.0001 7.78003C6.73776 7.77893 6.48636 7.67478 6.3001 7.49003L5.4001 6.59003C5.1217 6.29192 4.75882 6.08605 4.3601 6.00003C3.94797 5.92472 3.5226 5.98072 3.14401 6.16015C2.76543 6.33957 2.45275 6.63336 2.2501 7.00003C2.04753 7.36562 1.96037 7.78397 2.0001 8.20003L2.6001 14H21.4001L22.0001 8.20003C22.0374 7.7829 21.9467 7.36431 21.7401 7.00003Z" fill="#FF6DCC"/>
</g>
</svg>
